<svg xmlns="http://www.w3.org/2000/svg" xmlns:xlink="http://www.w3.org/1999/xlink" id="Layer_2" data-name="Layer 2" viewBox="0 0 96 96"><defs><style>      .cls-1 {        fill: #002d55;      }      .cls-2 {        fill: #0087ff;      }      .cls-3 {        fill: #004b8e;      }      .cls-4 {        fill: #0069c6;      }      .cls-5 {        fill: url(#linear-gradient);      }    </style><linearGradient id="linear-gradient" x1="48" y1="78.22" x2="48" y2="17.71" gradientUnits="userSpaceOnUse"><stop offset="0" stop-color="#000"></stop><stop offset=".62" stop-color="#0087ff"></stop></linearGradient></defs><g id="Layer_1-2" data-name="Layer 1"><rect width="96" height="96"></rect><g><path class="cls-5" d="M48,8.83c-8.86,0-17.04,2.94-23.6,7.9-2.9,2.19-5.48,4.77-7.67,7.67-4.96,6.56-7.9,14.74-7.9,23.6,0,21.64,17.54,39.17,39.17,39.17s39.17-17.54,39.17-39.17S69.63,8.83,48,8.83ZM48,77.38c-16.22,0-29.38-13.16-29.38-29.38s13.16-29.38,29.38-29.38,29.38,13.16,29.38,29.38-13.15,29.38-29.38,29.38Z"></path><path class="cls-2" d="M48,38.22v19.94c-6.32,4.31-12.65,8.61-18.97,12.92,6.32-10.95,12.65-21.9,18.97-32.85Z"></path><path class="cls-4" d="M66.97,71.07c-6.32-4.3-12.65-8.61-18.97-12.92v-19.94l18.97,32.85Z"></path><path class="cls-1" d="M66.97,71.07c-6.32,4.31-12.65,8.61-18.97,12.92v-25.84c6.32,4.31,12.65,8.61,18.97,12.92Z"></path><path class="cls-3" d="M48,58.16v25.84c-6.32-4.31-12.65-8.61-18.97-12.92,6.32-4.3,12.65-8.61,18.97-12.92Z"></path></g></g></svg>