<svg xmlns="http://www.w3.org/2000/svg" xmlns:xlink="http://www.w3.org/1999/xlink" id="b" data-name="Layer 2" viewBox="0 0 610.26 610.26"><defs><linearGradient id="d" x1="305.13" y1="540.52" x2="305.13" y2="69.19" gradientUnits="userSpaceOnUse"><stop offset="0" stop-color="#1f1f1f"></stop><stop offset=".62" stop-color="#0087ff"></stop></linearGradient></defs><g id="c" data-name="Layer 1"><g><path d="M305.13,0c-69.02,0-132.71,22.93-183.83,61.57-22.57,17.07-42.69,37.19-59.76,59.76C22.93,172.45,0,236.11,0,305.13c0,168.54,136.61,305.13,305.13,305.13s305.13-136.59,305.13-305.13S473.65,0,305.13,0ZM305.13,534c-126.38,0-228.85-102.47-228.85-228.87s102.47-228.85,228.85-228.85,228.85,102.47,228.85,228.85-102.45,228.87-228.85,228.87Z" fill="url(#d)"></path><path d="M305.13,228.96v155.29c-49.25,33.54-98.49,67.08-147.75,100.61,49.26-85.3,98.51-170.6,147.75-255.91Z" fill="#0087ff"></path><path d="M452.88,484.86c-49.25-33.53-98.49-67.07-147.75-100.61v-155.29l147.75,255.91Z" fill="#0069c6"></path><path d="M452.88,484.86c-49.25,33.54-98.49,67.08-147.75,100.62v-201.24c49.26,33.54,98.51,67.08,147.75,100.61Z" fill="#002d55"></path><path d="M305.13,384.25v201.24c-49.25-33.54-98.49-67.08-147.75-100.62,49.26-33.53,98.51-67.07,147.75-100.61Z" fill="#004b8e"></path></g></g></svg>